<svg id="Layer_1" data-name="Layer 1" xmlns="http://www.w3.org/2000/svg" viewBox="0 0 100 100"><defs><style>.cls-1{fill:#fff;}</style></defs><title>Instagram</title><path class="cls-1" d="M24.34-.05A24.33,24.33,0,0,0,.05,24.24V75.66A24.33,24.33,0,0,0,24.34,99.95H75.76a24.33,24.33,0,0,0,24.29-24.29V24.24A24.33,24.33,0,0,0,75.76-.05Zm0,8.57H75.76A15.59,15.59,0,0,1,91.48,24.24V75.66A15.59,15.59,0,0,1,75.76,91.38H24.34A15.59,15.59,0,0,1,8.62,75.66V24.24A15.59,15.59,0,0,1,24.34,8.52Zm54.29,8.57a5.71,5.71,0,1,0,5.71,5.71A5.71,5.71,0,0,0,78.62,17.09ZM50.05,25.66A24.29,24.29,0,1,0,74.34,49.95,24.35,24.35,0,0,0,50.05,25.66Zm0,8.57A15.71,15.71,0,1,1,34.34,49.95,15.65,15.65,0,0,1,50.05,34.24Z"/></svg>