<svg id="Layer_1" data-name="Layer 1" xmlns="http://www.w3.org/2000/svg" xmlns:xlink="http://www.w3.org/1999/xlink" viewBox="0 0 867 847"><defs><style>.cls-1,.cls-2{fill:none;}.cls-2{clip-rule:evenodd;}.cls-3{clip-path:url(#clip-path);}.cls-4{clip-path:url(#clip-path-2);}.cls-5{clip-path:url(#clip-path-3);}.cls-6{fill:#fff;}.cls-7{isolation:isolate;}.cls-8{clip-path:url(#clip-path-5);}.cls-9{clip-path:url(#clip-path-6);}.cls-10{fill:#48dba2;}.cls-11{fill:#2c3e50;}</style><clipPath id="clip-path"><rect class="cls-1" x="207.61" y="50.58" width="567.02" height="738.77"/></clipPath><clipPath id="clip-path-2"><rect class="cls-1" x="204.05" y="45.82" width="572.68" height="743.82"/></clipPath><clipPath id="clip-path-3"><path class="cls-2" d="M679.54,789.34H302.71c-52.43,0-95.1-42.05-95.1-93.74V246.07c0-107.8,89-195.49,198.3-195.49H576.33c109.35,0,198.3,87.69,198.3,195.49V695.6C774.63,747.29,732,789.34,679.54,789.34ZM405.92,65.71c-100.88,0-183,80.9-183,180.36V695.6c0,43.34,35.78,78.61,79.75,78.61H679.54c44,0,79.75-35.27,79.75-78.61V246.07c0-99.46-82.07-180.36-182.95-180.36Z"/></clipPath><clipPath id="clip-path-5"><rect class="cls-1" x="204.05" y="39.24" width="579.26" height="138.23"/></clipPath><clipPath id="clip-path-6"><path class="cls-2" d="M204,50.39v87.93c0,21.46,16.76,38.86,37.45,38.86h1.78c20.25,0,36.7-16.7,37.38-37.55h7.91c1.12,20.93,17.77,37.55,38.22,37.55s37.1-16.62,38.23-37.55h6.89c.67,20.85,17.13,37.55,37.38,37.55h1.77c20.26,0,36.71-16.7,37.38-37.55h7.16c1.12,20.93,17.79,37.55,38.23,37.55s37.1-16.62,38.22-37.55h6.85c.68,20.85,17.13,37.55,37.38,37.55h1.78c20.25,0,36.7-16.7,37.38-37.55h7.91c1.12,20.93,17.78,37.55,38.22,37.55s37.11-16.62,38.23-37.55h6.89c.67,20.85,17.12,37.55,37.38,37.55h1.77c20.69,0,37.45-17.4,37.45-38.86l-.49-88a11,11,0,0,0-10.75-11.09H214.8A11,11,0,0,0,204,50.39"/></clipPath></defs><title>Jam logo</title><g class="cls-3"><g class="cls-4"><g class="cls-5"><g class="cls-4"><rect class="cls-6" x="174.7" y="17.66" width="632.84" height="804.59"/></g></g></g></g><g class="cls-7"><g class="cls-8"><g class="cls-9"><g class="cls-8"><rect class="cls-10" x="171.14" y="6.32" width="645.08" height="203.78"/></g></g></g></g><path class="cls-10" d="M381.22,583.64l25.26-.06a3.06,3.06,0,0,0,2.86-2l17.25-46.83a3.06,3.06,0,0,0,.18-1.23L425,501.65a3.06,3.06,0,0,1,.77-2.21l26.06-29.14a3.06,3.06,0,0,0,.76-1.71l2.77-25.8a3.06,3.06,0,0,0-1.73-3.09l-55.55-26.39a3.06,3.06,0,0,0-1.51-.29l-27.42,1.78a3.06,3.06,0,0,0-2.7,2.07l-9.5,27.89a3.06,3.06,0,0,1-3,2.07l-35-1.19a3.06,3.06,0,0,0-3.14,2.69L309,504.46a3.06,3.06,0,0,0,.41,1.94L319,522.54a3.06,3.06,0,0,1,0,3.17l-13.34,21.74a3.06,3.06,0,0,1-.8.87l-20,14.67a3.06,3.06,0,0,0-1.11,3.39l6.72,21.32a3.06,3.06,0,0,0,.4.81l14.51,21.1a3.06,3.06,0,0,0,3.6,1.13l71.14-26.91A3.06,3.06,0,0,1,381.22,583.64Z"/><path class="cls-10" d="M486.74,416.59l-11.8,24a3.06,3.06,0,0,0,2.79,4.41l40.66-.61a3.06,3.06,0,0,1,2.84,4.3L511.1,471.52a3.06,3.06,0,0,0,.69,3.47l26.1,24.73a3.06,3.06,0,0,1,.81,3.15l-9.91,31.3a3.06,3.06,0,0,1-4.54,1.67L512,528.17a3.06,3.06,0,0,0-3.4.11l-32.91,23.48a3.06,3.06,0,0,0,.81,5.4L489,561.31a3.06,3.06,0,0,1,1,5.24l-41.32,35.1a3.06,3.06,0,0,0-1,3l3.1,14.23a3.06,3.06,0,0,0,2.4,2.35l25.94,5.06a3.06,3.06,0,0,1,1.16.49l29,20.1a3.06,3.06,0,0,1-.22,5.17l-84,48.23a3.06,3.06,0,0,0-.32,5.1l9.75,7.34a3.06,3.06,0,0,0,3.65,0l18-13.26a3.06,3.06,0,0,1,2.08-.58l29.47,2.6a3.06,3.06,0,0,0,2.07-.57l11.34-8.22a3.06,3.06,0,0,1,1.19-.52l19.23-3.91a3.06,3.06,0,0,1,1.79.17L534.45,693a3.06,3.06,0,0,0,1.64.2L571,687.87a3.06,3.06,0,0,1,.65,0L639.63,692a3.06,3.06,0,0,0,2.18-.73l26.4-22.7a3.06,3.06,0,0,0,.92-3.24l-3.07-9.75a3.06,3.06,0,0,0-2.09-2l-13.8-3.9a3.06,3.06,0,0,1-1.31-5.13l20.57-20.19a3.06,3.06,0,0,0,.25-.28l13.25-16.7a3.06,3.06,0,0,0,.64-2.3l-3.28-25a3.06,3.06,0,0,0-2.57-2.63l-45.35-7a3.06,3.06,0,0,1-2.52-3.67l3.67-16.89a3.06,3.06,0,0,0-1-3l-18.68-15.48a3.06,3.06,0,0,1,1-5.28l10.8-3.4a3.06,3.06,0,0,0,2-3.84l-8.9-28.26a3.06,3.06,0,0,0-1.41-1.74l-26.18-14.86a3.06,3.06,0,0,1-1.46-1.93l-15.45-63.21a3.06,3.06,0,0,0-1.78-2.09L528.87,388.4a3.06,3.06,0,0,1-.72-5.21l38.52-30.81a3.06,3.06,0,0,0,1-1.49l8.93-29.17a3.06,3.06,0,0,0,0-1.75l-5.91-20.35a3.06,3.06,0,0,0-3-2.21l-48.62,1a3.06,3.06,0,0,1-3-2.14L514.47,291a3.06,3.06,0,0,1,1.19-3.45L534,275.12a3.06,3.06,0,0,0,.76-.74l19.19-26.77a3.06,3.06,0,0,0-2.24-4.83l-50.11-4a3.06,3.06,0,0,0-2.86,1.46L464,296.95a3.06,3.06,0,0,0-.45,1.67l2,77.25a3.06,3.06,0,0,1-.1.84L458,405.82a3.06,3.06,0,0,0,4.92,3.12L477.1,397.2a3.06,3.06,0,0,1,4.87,1.44l4.94,15.69A3.06,3.06,0,0,1,486.74,416.59Z"/><path class="cls-10" d="M466.21,243.59l-8.31-5.65a3.06,3.06,0,0,0-3.7.2l-17.87,15.2a3.06,3.06,0,0,0-1.08,2.22l-.42,11.63a3.06,3.06,0,0,0,4.49,2.81l28.52-15.08a3.06,3.06,0,0,0,1.49-3.63l-1.92-6.09A3.06,3.06,0,0,0,466.21,243.59Z"/><polygon class="cls-6" points="536.25 523.86 576.86 442.63 593.11 402.02 584.98 369.53 556.55 345.16 515.94 345.16 491.57 365.47 483.45 377.65 483.45 397.96 495.63 446.69 536.25 523.86"/><circle class="cls-10" cx="538.28" cy="399.99" r="18.28"/><path class="cls-11" d="M537.14,536.85a5.41,5.41,0,0,1-4.85-3.05L482,426.06a62.56,62.56,0,0,1,1.44-56.74,60.67,60.67,0,0,1,53.69-32h0a60.33,60.33,0,0,1,53.69,32c9.52,17.42,10.06,38.07,1.44,56.74L542,533.8A5.11,5.11,0,0,1,537.14,536.85Zm0-188.54A49.67,49.67,0,0,0,493,374.71c-7.9,14.36-8.26,31.6-1.08,47l45.43,97.32,45.43-97.32c7.18-15.44,6.82-32.5-1.08-47h0C572.34,358,555.82,348.31,537.14,348.31Zm0,77a26.57,26.57,0,1,1,26.57-26.57A26.51,26.51,0,0,1,537.14,425.35Zm0-42.38a15.8,15.8,0,1,0,15.8,15.8A15.71,15.71,0,0,0,537.14,383Z"/></svg>