<svg id="Layer_1" data-name="Layer 1" xmlns="http://www.w3.org/2000/svg" viewBox="0 0 100 100"><defs><style>.cls-1{fill:#fff;}</style></defs><title>Medium</title><path class="cls-1" d="M33.93,22.94V87.33a3.92,3.92,0,0,1-.68,2.33,2.32,2.32,0,0,1-2,1,4,4,0,0,1-1.81-.44L3.9,77.39A4.66,4.66,0,0,1,2,75.55,4.79,4.79,0,0,1,1.16,73V10.42a3.09,3.09,0,0,1,.55-1.87,1.83,1.83,0,0,1,1.6-.77,6.32,6.32,0,0,1,2.42.82L33.78,22.66a.59.59,0,0,1,.15.28Zm3.51,5.55L66.76,76,37.45,61.42Zm62.08,1V87.33a3.18,3.18,0,0,1-.77,2.22,2.65,2.65,0,0,1-2.09.85,5.21,5.21,0,0,1-2.58-.71L69.89,77.61Zm-.16-6.58q0,.17-14.08,23T68.79,72.67L47.38,37.87,65.17,8.94a3.36,3.36,0,0,1,4.28-1.2l29.7,14.83a.33.33,0,0,1,.22.32Z"/></svg>