<svg id="Layer_1" data-name="Layer 1" xmlns="http://www.w3.org/2000/svg" viewBox="0 0 227 82"><defs><style>.cls-1{fill:#fff;}.cls-2{fill:#48dba2;}</style></defs><title>Progress bar</title><path class="cls-1" d="M179.93,13.74H41a24.48,24.48,0,0,0,0,49h139a24.48,24.48,0,1,0,0-49Zm0,45.3H41A20.82,20.82,0,0,1,41,17.4h139a20.82,20.82,0,1,1,0,41.64Z"/><path class="cls-2" d="M115.74,22H41A16.24,16.24,0,0,0,24.82,38.22h0A16.24,16.24,0,0,0,41,54.41h74.73a16.24,16.24,0,0,0,16.19-16.19h0A16.24,16.24,0,0,0,115.74,22Z"/></svg>