<svg id="Layer_1" data-name="Layer 1" xmlns="http://www.w3.org/2000/svg" viewBox="0 0 100 100"><defs><style>.cls-1{fill:#fff;}</style></defs><title>Twitter</title><path class="cls-1" d="M99.72,20.78A40.64,40.64,0,0,1,88,24,20.43,20.43,0,0,0,97,12.74,41,41,0,0,1,84,17.68,20.36,20.36,0,0,0,49.37,36.23,57.77,57.77,0,0,1,7.43,15a20.37,20.37,0,0,0,6.3,27.16,20.35,20.35,0,0,1-9.22-2.55v.25a20.37,20.37,0,0,0,16.32,20,20.61,20.61,0,0,1-5.36.71,19.53,19.53,0,0,1-3.83-.38,20.36,20.36,0,0,0,19,14.13,40.83,40.83,0,0,1-25.27,8.7,43.24,43.24,0,0,1-4.85-.28,57.52,57.52,0,0,0,31.19,9.16c37.43,0,57.89-31,57.89-57.89l-.07-2.63A40.63,40.63,0,0,0,99.72,20.78Z"/></svg>